<?xml version="1.0" standalone="no"?>
<!DOCTYPE svg PUBLIC "-//W3C//DTD SVG 20010904//EN"
 "http://www.w3.org/TR/2001/REC-SVG-20010904/DTD/svg10.dtd">
<svg version="1.0" xmlns="http://www.w3.org/2000/svg"
 width="338.000000pt" height="151.000000pt" viewBox="0 0 338.000000 151.000000"
 preserveAspectRatio="xMidYMid meet">

<g transform="translate(0.000000,151.000000) scale(0.100000,-0.100000)"
fill="#000000" stroke="none">
<path d="M2445 1391 c-39 -15 -78 -30 -88 -34 -17 -6 -16 -11 10 -54 l28 -48
3 -390 c3 -362 0 -428 -24 -489 -5 -14 5 -16 91 -16 95 0 96 0 89 23 -21 65
-24 130 -24 565 0 259 -3 472 -7 471 -5 -1 -40 -13 -78 -28z"/>
<path d="M73 1293 c68 -66 68 -67 65 -458 l-3 -350 -33 -59 c-18 -32 -31 -60
-29 -62 2 -3 52 -3 111 -2 l106 3 -34 48 c-19 26 -39 69 -45 95 -11 52 -23
652 -13 652 4 -1 142 -181 306 -400 269 -360 302 -400 327 -400 l28 0 3 418
c3 445 1 426 55 515 l23 37 -111 0 -110 0 21 -30 c11 -16 30 -51 42 -77 21
-45 22 -66 26 -338 2 -181 0 -286 -6 -280 -12 13 -164 212 -381 498 l-173 227
-106 0 -106 0 37 -37z"/>
<path d="M1937 1087 c-54 -51 -97 -95 -97 -99 0 -5 18 -8 40 -8 l40 0 0 -262
c0 -288 4 -309 61 -351 60 -43 174 -30 237 28 42 38 38 53 -9 36 -70 -24 -132
-7 -149 42 -6 18 -10 128 -10 268 l0 239 95 0 c95 0 95 0 95 25 0 25 0 25 -95
25 l-95 0 0 75 c0 41 -3 75 -7 75 -5 -1 -52 -42 -106 -93z"/>
<path d="M1305 1041 c-97 -26 -192 -104 -241 -201 -25 -48 -28 -67 -29 -145 0
-79 3 -97 28 -147 36 -74 101 -139 175 -175 50 -24 69 -28 147 -28 78 0 98 4
151 28 73 34 142 102 181 177 23 47 27 67 28 140 0 76 -3 92 -32 151 -61 124
-175 200 -307 205 -39 2 -84 0 -101 -5z m160 -64 c89 -42 136 -139 136 -282 0
-169 -71 -282 -188 -301 -179 -28 -297 224 -211 454 34 90 106 148 188 151 14
0 48 -10 75 -22z"/>
<path d="M2899 1036 c-54 -14 -125 -55 -157 -89 -35 -37 -11 -42 62 -13 71 29
163 35 206 13 37 -18 60 -72 60 -143 l0 -61 -72 -18 c-193 -47 -298 -133 -298
-245 0 -83 46 -129 139 -137 69 -6 154 23 196 67 34 35 45 38 45 10 0 -54 88
-93 160 -71 44 13 118 87 102 103 -7 7 -18 5 -33 -6 -33 -23 -86 -21 -99 3 -6
12 -10 104 -10 228 0 120 -5 225 -11 248 -29 102 -150 149 -290 111z m171
-446 l0 -109 -45 -27 c-87 -51 -187 -31 -200 40 -16 83 41 141 185 187 30 10
56 18 58 18 1 1 2 -48 2 -109z"/>
</g>
</svg>
